<svg width="464" height="668" viewBox="0 0 464 668" fill="none" xmlns="http://www.w3.org/2000/svg">
<g filter="url(#filter0_d_111_42)">
<path fill-rule="evenodd" clip-rule="evenodd" d="M334.657 103.279C295.019 107.364 306.2 139.976 263.855 174.977C237.434 196.726 219.141 207.928 198.816 223.908C152.749 260.267 126.661 301.717 127.681 362.877C138.516 264.339 217.788 218.127 250.305 193.998C203.222 235.448 181.539 269.769 167.652 297.978C138.179 357.768 136.826 401.946 196.11 445.773C220.503 463.449 254.373 484.846 260.132 534.115C245.562 508.971 212.703 481.112 185.608 473.293C241.502 516.452 267.586 549.402 259.116 606.832C240.478 528.009 148.343 503.884 105.32 436.258C4.71169 266.035 195.085 235.448 249.964 153.567C191.7 211.336 109.384 225.604 70.092 310.88C92.4447 223.908 125.641 197.406 151.383 178.035C196.443 145.072 243.863 134.195 265.541 72.367C229.639 133.87 195.427 136.585 143.934 171.231C102.947 198.764 63.65 241.233 53.4897 337.382C9.80028 245.639 59.5943 117.209 124.97 59.7908C192.72 0.326299 276.726 -11.5649 346.171 78.135C436.96 131.819 469.477 253.463 348.207 405.68C435.603 282.679 415.952 174.296 364.463 130.457C425.101 218.8 386.825 302.051 351.255 375.783C329.235 421.305 335.673 431.501 354.982 477.717C320.087 447.13 329.568 418.929 292.312 388.355C266.907 367.964 235.402 355.392 214.057 332.286C202.539 319.372 198.816 305.446 214.057 271.122C222.189 253.801 230.996 250.743 240.815 257.192C249.964 263.654 280.453 290.832 284.521 267.726C285.537 261.265 284.184 257.531 291.288 254.477C296.031 252.439 300.774 253.458 299.42 246.659C298.742 243.263 299.758 241.905 303.822 241.229C308.565 240.21 308.227 238.514 307.549 233.072C305.517 219.819 316.014 221.519 322.456 219.48C328.548 217.442 328.548 212.693 326.858 207.247C325.841 204.194 325.167 201.136 324.151 198.083C321.099 187.207 320.761 180.069 322.119 172.601L333.97 171.231L323.472 167.158C332.616 144.729 339.396 134.542 334.657 103.279ZM362.094 180.069C368.19 207.247 365.817 235.799 359.042 261.962C347.191 307.146 327.878 322.433 318.733 377.483C321.44 319.376 339.058 300.355 350.913 258.892C357.351 236.476 361.415 210.655 362.094 180.069ZM181.539 38.7232C98.2121 77.7925 52.8194 171.907 51.4661 262.639C68.7429 173.958 96.8587 97.8451 181.539 38.7232Z" fill="#F3F3F3"/>
</g>
<defs>
<filter id="filter0_d_111_42" x="0.400574" y="0.556194" width="463.432" height="667.031" filterUnits="userSpaceOnUse" color-interpolation-filters="sRGB">
<feFlood flood-opacity="0" result="BackgroundImageFix"/>
<feColorMatrix in="SourceAlpha" type="matrix" values="0 0 0 0 0 0 0 0 0 0 0 0 0 0 0 0 0 0 127 0" result="hardAlpha"/>
<feOffset dy="24.1556"/>
<feGaussianBlur stdDeviation="18.2997"/>
<feComposite in2="hardAlpha" operator="out"/>
<feColorMatrix type="matrix" values="0 0 0 0 0 0 0 0 0 0 0 0 0 0 0 0 0 0 0.25 0"/>
<feBlend mode="normal" in2="BackgroundImageFix" result="effect1_dropShadow_111_42"/>
<feBlend mode="normal" in="SourceGraphic" in2="effect1_dropShadow_111_42" result="shape"/>
</filter>
</defs>
</svg>
